<svg width="30" height="20" viewBox="0 0 45 33" xmlns="http://www.w3.org/2000/svg">
<path d="M37.2487 2.65364C34.3961 1.40385 31.3857 0.512663 28.2929 0.00238813C28.2647 -0.00285669 28.2354 0.000587821 28.2094 0.0122252C28.1834 0.0238626 28.1619 0.0430913 28.148 0.067138C27.763 0.723388 27.334 1.57914 27.0334 2.25464C23.6993 1.77126 20.3079 1.77126 16.9739 2.25464C16.6393 1.50617 16.2616 0.775888 15.8427 0.067138C15.8283 0.0436298 15.8067 0.0248568 15.7808 0.0132967C15.755 0.00173657 15.726 -0.002067 15.6979 0.00238813C12.6048 0.511603 9.59422 1.40283 6.74205 2.65364C6.7179 2.66331 6.69743 2.67979 6.68338 2.70089C0.978048 10.8366 -0.585785 18.7711 0.182381 26.6059C0.184247 26.6253 0.19025 26.6442 0.200022 26.6614C0.209794 26.6785 0.223131 26.6936 0.239214 26.7056C3.56047 29.0545 7.27575 30.8475 11.2264 32.0081C11.2542 32.0158 11.2839 32.0153 11.3114 32.0065C11.3389 31.9978 11.3629 31.9812 11.3804 31.9591C12.2274 30.8566 12.9827 29.6929 13.628 28.4696C13.6371 28.4529 13.6423 28.4346 13.6433 28.4158C13.6444 28.3971 13.6412 28.3783 13.6341 28.3608C13.627 28.3432 13.6161 28.3273 13.6021 28.3141C13.5881 28.3009 13.5713 28.2907 13.5529 28.2841C12.3675 27.8511 11.2199 27.3292 10.1209 26.7231C10.1007 26.712 10.0838 26.6963 10.0715 26.6774C10.0593 26.6585 10.0521 26.6371 10.0507 26.6149C10.0492 26.5927 10.0535 26.5705 10.0632 26.5504C10.0729 26.5302 10.0877 26.5126 10.1062 26.4991C10.3377 26.3339 10.565 26.1635 10.7882 25.9881C10.8077 25.973 10.8313 25.9634 10.8562 25.9603C10.8811 25.9572 10.9065 25.9608 10.9294 25.9706C18.1307 29.1084 25.926 29.1084 33.043 25.9706C33.0662 25.9604 33.0919 25.9567 33.1172 25.9598C33.1425 25.9629 33.1663 25.9727 33.186 25.9881C33.406 26.1596 33.637 26.3346 33.8699 26.4991C33.8882 26.5123 33.9029 26.5296 33.9126 26.5495C33.9224 26.5693 33.9269 26.5911 33.9258 26.613C33.9247 26.6349 33.9181 26.6562 33.9064 26.6751C33.8947 26.694 33.8784 26.7099 33.8589 26.7214C32.7624 27.3331 31.6137 27.8553 30.425 28.2824C30.4065 28.2892 30.3897 28.2996 30.3757 28.3129C30.3617 28.3263 30.3508 28.3423 30.3437 28.36C30.3366 28.3777 30.3335 28.3966 30.3346 28.4155C30.3356 28.4343 30.3408 28.4528 30.3499 28.4696C31.0099 29.6911 31.7652 30.8531 32.5957 31.9574C32.6128 31.9799 32.6368 31.9967 32.6645 32.0055C32.6921 32.0143 32.7219 32.0146 32.7497 32.0064C36.7069 30.8494 40.4282 29.0561 43.7534 26.7039C43.7696 26.693 43.7831 26.6789 43.7933 26.6626C43.8034 26.6463 43.8098 26.6282 43.812 26.6094C44.7287 17.5496 42.2757 9.67989 37.3055 2.70439C37.2939 2.68086 37.2737 2.6622 37.2487 2.65189V2.65364ZM14.7042 21.8336C12.5354 21.8336 10.7497 19.9349 10.7497 17.6004C10.7497 15.2676 12.5024 13.3671 14.7042 13.3671C16.9225 13.3671 18.6935 15.2851 18.6587 17.6021C18.6587 19.9349 16.906 21.8336 14.7042 21.8336ZM29.325 21.8336C27.1562 21.8336 25.3705 19.9349 25.3705 17.6004C25.3705 15.2676 27.1214 13.3671 29.325 13.3671C31.5434 13.3671 33.3144 15.2851 33.2795 17.6021C33.2795 19.9349 31.5452 21.8336 29.325 21.8336Z"  />
</svg>
