<?xml version="1.0" standalone="no"?>
<!DOCTYPE svg PUBLIC "-//W3C//DTD SVG 20010904//EN"
 "http://www.w3.org/TR/2001/REC-SVG-20010904/DTD/svg10.dtd">
<svg width="40" height="40" version="1.0" xmlns="http://www.w3.org/2000/svg"
  viewBox="0 0 2133.000000 2133.000000"
 preserveAspectRatio="xMidYMid meet">

<g transform="translate(0.000000,2133.000000) scale(0.100000,-0.100000)"
fill="#F4D03F" stroke="none">
<path d="M8551 19164 c-1179 -318 -2253 -865 -3201 -1628 -435 -350 -891 -803
-1271 -1261 -222 -269 -541 -722 -737 -1050 -976 -1633 -1387 -3578 -1157
-5475 196 -1616 844 -3144 1869 -4409 372 -459 828 -915 1287 -1287 622 -504
1333 -932 2064 -1242 1735 -736 3663 -887 5490 -430 1120 280 2163 776 3085
1469 361 271 607 485 936 813 910 910 1573 1950 2021 3166 105 287 285 891
270 907 -3 2 -92 -29 -199 -70 -727 -283 -1454 -448 -2278 -518 -208 -17 -783
-23 -1020 -10 -1599 88 -3079 620 -4350 1564 -536 398 -1058 901 -1476 1422
-1385 1725 -1988 3941 -1673 6150 84 587 238 1175 455 1731 41 105 74 194 74
198 0 10 -19 6 -189 -40z"/>
</g>
</svg>
